# xmcd
#
# Track frame offsets:
#	150
#	28386
#	51858
#	86719
#	99335
#	143270
#	167102
#	198165
#	233840
#	256069
#
# Disc length: 3958 seconds
#
# Revision: 3
# Processed by: cddbd v1.5.2PL0 Copyright (c) Steve Scherf et al.
# Submitted via: audiograbber 1.83.01
#
DISCID=7a0f740a
DTITLE=Manu Katché - Live In Concert
DYEAR=2014
DGENRE=Jazz
TTITLE0=Pieces Of Emotion [live]
TTITLE1=Shine And Blue [live]
TTITLE2=Song For Her [live]
TTITLE3=Loving You [live]
TTITLE4=Clubbing [live]
TTITLE5=Springtime Dancing [live]
TTITLE6=Walking By Your Side [live]
TTITLE7=Beats And Bounce [live]
TTITLE8=Drum Solo [live]
TTITLE9=Snapshot [live]
EXTD=
EXTT0=
EXTT1=
EXTT2=
EXTT3=
EXTT4=
EXTT5=
EXTT6=
EXTT7=
EXTT8=
EXTT9=
PLAYORDER=
